# xmcd
#
# Track frame offsets:
#	150
#	16431
#	28083
#	43178
#	64621
#	79093
#	95737
#	107260
#	122936
#	140974
#	161119
#	174514
#	188234
#	201691
#
# Disc length: 2965 seconds
#
# Revision: 0
# Processed by: cddbd v1.5.2PL0 Copyright (c) Steve Scherf et al.
# Submitted via: audiograbber 1.83.01
#
DISCID=cf0b930e
DTITLE=01 - Mr Music Country 2012-11
DYEAR=2012
DGENRE=Country
TTITLE0=Dierks Bentley - Trying to stop your leaving
TTITLE1=Sherrie´ Austin - Put your heart into it
TTITLE2=Jerry Kilgore - The look
TTITLE3=Miranda Lambert - White liar
TTITLE4=The Warren Brothers - Move on
TTITLE5=Michelle Wright - He would be sixteen
TTITLE6=Dude Mowrey - Cowboys don't cry
TTITLE7=Lacy J. Dalton - Lonesome (As the night is long)
TTITLE8=Chris Cagle - I breathe in, I breathe out
TTITLE9=Lari White - Now I know
TTITLE10=David Ball - Thinkin' problems
TTITLE11=The Jenkins - Getaway car
TTITLE12=Tracy Lawrence - As any fool can see
TTITLE13=Martina McBride - Blessed
EXTD=
EXTT0=
EXTT1=
EXTT2=
EXTT3=
EXTT4=
EXTT5=
EXTT6=
EXTT7=
EXTT8=
EXTT9=
EXTT10=
EXTT11=
EXTT12=
EXTT13=
PLAYORDER=
